<?xml version="1.0" encoding="UTF-8"?>
<svg width="20px" height="100px" viewBox="0 0 20 100" version="1.1" xmlns="http://www.w3.org/2000/svg" xmlns:xlink="http://www.w3.org/1999/xlink">
    <!-- Generator: Sketch 51.3 (57544) - http://www.bohemiancoding.com/sketch -->
    <title>Artboard</title>
    <desc>Created with Sketch.</desc>
    <defs></defs>
    <g id="Artboard" stroke="none" stroke-width="1" fill="none" fill-rule="evenodd">
        <g id="eye-svgrepo-com" transform="translate(2.000000, 4.000000)" fill="#FFFFFF">
            <g id="Shape">
                <path d="M7.85632653,3.22558824 C6.65142857,3.22558824 5.66857143,4.24470588 5.66857143,5.5 C5.66857143,6.75205882 6.64816327,7.77441176 7.85632653,7.77441176 C9.06122449,7.77441176 10.0440816,6.75529412 10.0440816,5.5 C10.0440816,4.24794118 9.06122449,3.22558824 7.85632653,3.22558824 Z" fill-rule="nonzero"></path>
                <path d="M7.85632653,9.09441176 C5.91673469,9.09441176 4.33632653,7.48323529 4.33632653,5.5 C4.33632653,3.51676471 5.91673469,1.90558824 7.85632653,1.90558824 C9.79591837,1.90558824 11.3763265,3.51676471 11.3763265,5.5 C11.3763265,7.48323529 9.79591837,9.09441176 7.85632653,9.09441176 Z M15.8987755,5.15058824 C13.8155102,1.83764706 11.0073469,0.0129411765 8,0.0129411765 C4.99265306,0.0129411765 2.1844898,1.83764706 0.10122449,5.15058824 C-0.0326530612,5.36411765 -0.0326530612,5.63588235 0.10122449,5.84941176 C2.1844898,9.16235294 4.99265306,10.9870588 8,10.9870588 C11.0073469,10.9870588 13.8122449,9.16235294 15.8987755,5.84941176 C16.0326531,5.63588235 16.0326531,5.36411765 15.8987755,5.15058824 Z" fill-rule="nonzero"></path>
            </g>
        </g>
        <polyline id="Path-2" stroke="#FFFFFF" stroke-width="1.5" fill-rule="nonzero" transform="translate(9.742641, 28.742641) rotate(45.000000) translate(-9.742641, -28.742641) " points="12.2426407 26.2426407 12.2426407 31.2426407 7.24264069 31.2426407"></polyline>
        <g id="Group" transform="translate(4.000000, 44.000000)" fill-rule="nonzero" stroke="#FFFFFF" stroke-linecap="square" stroke-width="1.5">
            <path d="M11.0124797,0.987520262 L0.990003997,11.009996" id="Line-2"></path>
            <path d="M11.0124797,0.987520262 L0.990003997,11.009996" id="Line-2" transform="translate(6.000000, 6.000000) scale(-1, 1) translate(-6.000000, -6.000000) "></path>
        </g>
        <polygon id="Path-3" fill="#FFFFFF" fill-rule="nonzero" points="5 63 5 77 16 70"></polygon>
        <path d="M10.8671875,92.046875 L8.875,92.046875 C8.86979164,91.7604152 8.8671875,91.5859378 8.8671875,91.5234375 C8.8671875,90.8776009 8.97395727,90.3463562 9.1875,89.9296875 C9.40104273,89.5130188 9.8281218,89.0442734 10.46875,88.5234375 C11.1093782,88.0026016 11.4921869,87.6614591 11.6171875,87.5 C11.8098968,87.2447904 11.90625,86.9635432 11.90625,86.65625 C11.90625,86.2291645 11.7356788,85.8632828 11.3945312,85.5585938 C11.0533837,85.2539047 10.5937529,85.1015625 10.015625,85.1015625 C9.45833055,85.1015625 8.99218938,85.2604151 8.6171875,85.578125 C8.24218562,85.8958349 7.9843757,86.3802051 7.84375,87.03125 L5.828125,86.78125 C5.88541695,85.8489537 6.2825484,85.0572949 7.01953125,84.40625 C7.7565141,83.7552051 8.72395234,83.4296875 9.921875,83.4296875 C11.182298,83.4296875 12.1848921,83.7591113 12.9296875,84.4179688 C13.6744829,85.0768262 14.046875,85.8437456 14.046875,86.71875 C14.046875,87.2031274 13.9101576,87.6614562 13.6367188,88.09375 C13.3632799,88.5260438 12.7786503,89.1145796 11.8828125,89.859375 C11.4192685,90.2447936 11.131511,90.5546863 11.0195312,90.7890625 C10.9075515,91.0234387 10.8567708,91.4427053 10.8671875,92.046875 Z" id="?" fill="#FFFFFF"></path>
        <circle id="Oval-2" fill="#FFFFFF" fill-rule="nonzero" cx="10" cy="95.5" r="1.5"></circle>
    </g>
</svg>