<?xml version="1.0" encoding="UTF-8"?>
<svg width="20px" height="80px" viewBox="0 0 20 80" version="1.1" xmlns="http://www.w3.org/2000/svg" xmlns:xlink="http://www.w3.org/1999/xlink">
    <!-- Generator: Sketch 51.3 (57544) - http://www.bohemiancoding.com/sketch -->
    <title>Artboard</title>
    <desc>Created with Sketch.</desc>
    <defs></defs>
    <g id="Artboard" stroke="none" stroke-width="1" fill="none" fill-rule="evenodd">
        <g id="eye-svgrepo-com" transform="translate(2.000000, 4.000000)" fill="#FFFFFF">
            <g id="Shape">
                <path d="M7.85632653,3.22558824 C6.65142857,3.22558824 5.66857143,4.24470588 5.66857143,5.5 C5.66857143,6.75205882 6.64816327,7.77441176 7.85632653,7.77441176 C9.06122449,7.77441176 10.0440816,6.75529412 10.0440816,5.5 C10.0440816,4.24794118 9.06122449,3.22558824 7.85632653,3.22558824 Z" fill-rule="nonzero"></path>
                <path d="M7.85632653,9.09441176 C5.91673469,9.09441176 4.33632653,7.48323529 4.33632653,5.5 C4.33632653,3.51676471 5.91673469,1.90558824 7.85632653,1.90558824 C9.79591837,1.90558824 11.3763265,3.51676471 11.3763265,5.5 C11.3763265,7.48323529 9.79591837,9.09441176 7.85632653,9.09441176 Z M15.8987755,5.15058824 C13.8155102,1.83764706 11.0073469,0.0129411765 8,0.0129411765 C4.99265306,0.0129411765 2.1844898,1.83764706 0.10122449,5.15058824 C-0.0326530612,5.36411765 -0.0326530612,5.63588235 0.10122449,5.84941176 C2.1844898,9.16235294 4.99265306,10.9870588 8,10.9870588 C11.0073469,10.9870588 13.8122449,9.16235294 15.8987755,5.84941176 C16.0326531,5.63588235 16.0326531,5.36411765 15.8987755,5.15058824 Z" fill-rule="nonzero"></path>
            </g>
        </g>
        <polyline id="Path-2" stroke="#FFFFFF" stroke-width="1.5" fill-rule="nonzero" transform="translate(9.742641, 28.742641) rotate(45.000000) translate(-9.742641, -28.742641) " points="12.2426407 26.2426407 12.2426407 31.2426407 7.24264069 31.2426407"></polyline>
        <g id="Group" transform="translate(4.000000, 44.000000)" fill-rule="nonzero" stroke="#FFFFFF" stroke-linecap="square" stroke-width="1.5">
            <path d="M11.0124797,0.987520262 L0.990003997,11.009996" id="Line-2"></path>
            <path d="M11.0124797,0.987520262 L0.990003997,11.009996" id="Line-2" transform="translate(6.000000, 6.000000) scale(-1, 1) translate(-6.000000, -6.000000) "></path>
        </g>
        <polygon id="Path-3" fill="#FFFFFF" fill-rule="nonzero" points="5 63 5 77 16 70"></polygon>
    </g>
</svg>