<?xml version="1.0" encoding="UTF-8"?>
<svg width="40px" height="240px" viewBox="0 0 40 240" version="1.1" xmlns="http://www.w3.org/2000/svg" xmlns:xlink="http://www.w3.org/1999/xlink">
    <!-- Generator: Sketch 51.3 (57544) - http://www.bohemiancoding.com/sketch -->
    <title>icons</title>
    <desc>Created with Sketch.</desc>
    <defs></defs>
    <g id="icons" stroke="none" stroke-width="1" fill="none" fill-rule="evenodd">
        <g id="004-formula-1" transform="translate(6.000000, 8.000000)" fill-rule="nonzero">
            <path d="M27.7156923,18.168546 L26.6174636,17.4967359 C26.9489813,17.3802374 27.288183,17.255549 27.6397256,17.1210682 C27.787952,17.06436 27.8977665,16.934762 27.9312629,16.7770093 C27.9647593,16.6192565 27.9173489,16.4549595 27.8053971,16.3408309 C27.1031268,15.6248071 24.805264,14.3736499 22.3118669,13.595905 C21.9962725,13.4479444 21.6593464,13.3528172 21.3140541,13.314184 C20.2138462,13.0362018 19.1911767,12.8902077 18.2718919,12.8794065 C18.0073367,12.5766201 17.6285072,12.4034758 17.2307692,12.4035608 L16.4301206,12.4035608 L16.6629688,11.4540059 L19.0935551,11.4540059 C19.2407107,11.4540164 19.3792132,11.3831177 19.4671019,11.2627893 C19.5159418,11.195905 20.6563742,9.57976261 20.0186029,5.67863501 C19.7663701,4.13560831 19.0652058,2.72551929 18.0442827,1.70795252 C16.9231767,0.590623145 15.4944782,0 13.9126819,0 C11.2211712,0.000284300893 8.85296739,1.81193491 8.10025888,4.44644147 C7.34755037,7.08094802 8.39106637,9.90575197 10.661422,11.3795252 C10.7362083,11.4281281 10.8230449,11.4539665 10.9117339,11.4540059 L11.2566985,11.4540059 C11.2036623,11.6064535 11.1766106,11.7670309 11.1767152,11.9287834 L11.1767152,13.8278932 C11.176648,13.9896525 11.2037391,14.1502302 11.256815,14.3026706 L10.4898129,14.3026706 C10.366578,13.9901484 10.4243825,13.4146588 10.5337048,13.2510386 C10.645654,13.1610272 10.7109911,13.0236937 10.7110187,12.8783383 L10.7110187,11.9287834 C10.7110271,11.7081292 10.5619228,11.5165532 10.3511518,11.4664095 C9.5122578,11.2669436 8.86453222,11.5491395 8.28974636,11.8837389 C7.87294802,12.1261721 7.5010894,12.4214243 7.14151351,12.7069436 C6.96629522,12.8460534 6.80079834,12.9774481 6.62959667,13.1039763 C6.38581772,13.2884367 6.1260025,13.4497812 5.85339709,13.5859941 C5.47259964,13.4320017 5.06662533,13.3529813 4.65696466,13.3531157 L4.65696466,10.504451 C4.65696466,10.2422387 4.44846525,10.0296736 4.19126819,10.0296736 L0.465696466,10.0296736 C0.20849941,10.0296736 0,10.2422387 0,10.504451 L0,14.3026706 C0,14.564883 0.20849941,14.7774481 0.465696466,14.7774481 L1.98404158,14.7774481 C1.02101372,16.1834214 1.26631386,18.1057139 2.55014072,19.2136794 C3.83396757,20.3216449 5.73411594,20.2509128 6.93526819,19.0504451 L17.6964657,19.0504451 C18.0441081,19.0504451 18.3876175,19.0445104 18.72158,19.0334125 C19.4337722,19.7200319 20.4115746,20.0428372 21.3833623,19.9121558 C22.35515,19.7814745 23.2174089,19.2112266 23.7306112,18.359822 C23.7582037,18.3531751 23.785738,18.3466469 23.8132723,18.339822 C23.7301921,18.4864779 23.730228,18.6671955 23.8133667,18.8138171 C23.8965054,18.9604387 24.0500976,19.0506566 24.2162162,19.0504451 L27.4760915,19.0504451 C27.685416,19.0504485 27.8690215,18.908065 27.9248974,18.7024022 C27.9807734,18.4967395 27.895188,18.2783401 27.7156923,18.168546 Z" id="Path" fill="#891111"></path>
            <path d="M18.6275094,13.841543 C18.7863119,13.8498516 18.9476757,13.861543 19.1129397,13.8781009 C18.880739,14.041246 18.6701043,14.2341867 18.4862287,14.4521662 C18.577514,14.2619554 18.6257924,14.0532935 18.6275094,13.841543 Z" id="Path" fill="#FF5858"></path>
            <path d="M15.4700873,12.4035608 L14.4365904,12.4035608 C14.1795131,12.4032665 13.9711827,12.1908737 13.970894,11.9287834 C13.9709612,11.7670241 13.9438701,11.6064464 13.8907942,11.4540059 L15.7029356,11.4540059 L15.4700873,12.4035608 Z" id="Path" fill="#FF5858"></path>
            <path d="M17.3650062,5.28189911 C17.6917523,6.18534274 17.8532061,7.14221964 17.8413555,8.10504451 C16.1390603,8.05928783 13.9586112,7.94243323 13.1867775,7.68011869 C12.7108358,7.51845697 12.5589605,6.82373887 12.5154179,6.26949555 C12.4921706,5.94061743 12.4946622,5.61037373 12.522869,5.28189911 L17.3650062,5.28189911 Z" id="Path" fill="#FFFFFF"></path>
            <path d="M18.3505364,5.28189911 L18.9853971,5.28189911 C19.0305696,5.46356083 19.0693389,5.64783383 19.0999002,5.8347181 C19.2294961,6.59232103 19.2889592,7.36066541 19.2775052,8.12961424 C19.1254553,8.12866469 18.9557672,8.12688427 18.7724574,8.124273 C18.7849364,7.15968756 18.6424105,6.19952737 18.3505364,5.28189911 Z" id="Path" fill="#FFFFFF"></path>
            <path d="M8.79002079,6.17210682 C8.79322878,3.28912683 11.0848442,0.952825438 13.9126819,0.949554896 C15.2144325,0.936438372 16.4674064,1.45391731 17.3931809,2.38700297 C17.9421822,2.94253397 18.3773705,3.60379908 18.6734387,4.33234421 L12.1081081,4.33234421 C11.8804572,4.33234953 11.6861769,4.50014697 11.6487568,4.72908012 C11.5943867,5.06142433 11.1674012,7.9948368 12.8922245,8.5810089 C14.1390104,9.00468843 18.0032432,9.06878338 19.2053805,9.07839763 C19.1067692,9.80451039 18.9331227,10.2679525 18.8224033,10.504451 L11.0510936,10.504451 C9.63478053,9.53615022 8.78642312,7.91064911 8.79002079,6.17210682 Z" id="Path" fill="#FF5858"></path>
            <path d="M12.1081081,13.8278932 L12.1081081,11.9287834 C12.1081081,11.666571 12.3166075,11.4540059 12.5738046,11.4540059 C12.8310016,11.4540059 13.039501,11.666571 13.039501,11.9287834 C13.0403992,12.7150408 13.6653716,13.3522 14.4365904,13.3531157 L15.8321663,13.3531157 L15.8340291,13.3531157 L15.8367069,13.3531157 L17.2307692,13.3531157 C17.4879663,13.3531157 17.6964657,13.5656808 17.6964657,13.8278932 C17.6964657,14.0901055 17.4879663,14.3026706 17.2307692,14.3026706 L12.5738046,14.3026706 C12.3167272,14.3023763 12.1083968,14.0899835 12.1081081,13.8278932 Z" id="Path" fill="#FF5858"></path>
            <path d="M0.931392931,10.9792285 L3.72557173,10.9792285 L3.72557173,13.4920475 C3.46413513,13.5715611 3.21358923,13.6844016 2.97987526,13.8278932 L0.931392931,13.8278932 L0.931392931,10.9792285 Z" id="Path" fill="#FF5858"></path>
            <path d="M1.3970894,16.7062315 C1.3970894,14.8543568 2.86961648,13.3531157 4.68607069,13.3531157 C6.50252489,13.3531157 7.97505198,14.8543568 7.97505198,16.7062315 C7.97505198,18.5581061 6.50252489,20.0593472 4.68607069,20.0593472 C2.87046178,20.0572683 1.39912852,18.5572443 1.3970894,16.7062315 Z" id="Path" fill="#000000"></path>
            <path d="M17.6964657,16.6765579 C17.6964657,14.8410715 19.1559616,13.3531157 20.956341,13.3531157 C22.7567203,13.3531157 24.2162162,14.8410715 24.2162162,16.6765579 C24.2162162,18.5120443 22.7567203,20 20.956341,20 C19.1567994,19.9979395 17.6984868,18.5111901 17.6964657,16.6765579 Z" id="Path-Copy" fill="#000000"></path>
            <path d="M2.32848233,16.6765579 C2.32848233,15.3654961 3.37097938,14.3026706 4.65696466,14.3026706 C5.94294994,14.3026706 6.98544699,15.3654961 6.98544699,16.6765579 C6.98544699,17.9876196 5.94294994,19.0504451 4.65696466,19.0504451 C3.37157782,19.0489733 2.32992595,17.9870095 2.32848233,16.6765579 Z" id="Path" fill="#5A5A5A"></path>
            <polygon id="Path" fill="#FF5858" points="10.2453222 18.1008902 10.2453222 17.1513353 15.8336798 17.1513353 15.8336798 18.1008902"></polygon>
            <path d="M16.7650728,18.1008902 L16.7650728,16.6765579 C16.7650728,16.4143455 16.5565734,16.2017804 16.2993763,16.2017804 L9.77962578,16.2017804 C9.52242872,16.2017804 9.31392931,16.4143455 9.31392931,16.6765579 L9.31392931,18.1008902 L7.60167983,18.1008902 C8.23412531,16.7446254 7.89390653,15.1243634 6.77227443,14.1509199 C6.90336798,14.0672404 7.03748857,13.9751929 7.17603326,13.8728783 C7.36033264,13.7367359 7.54003326,13.5939466 7.71379626,13.4560831 C8.06306861,13.1789318 8.39249064,12.9171513 8.7514262,12.7083086 C9.12572973,12.4903858 9.43687318,12.354184 9.77962578,12.3493769 L9.77962578,12.6947774 C9.57856133,12.9855786 9.51767152,13.3945994 9.49968399,13.5872404 C9.47145114,13.8895549 9.45544283,14.6436202 9.91601663,15.112997 C10.0033265,15.2020993 10.1217851,15.2521829 10.2453222,15.2522255 L17.2307692,15.2522255 C17.5877528,15.2524275 17.9311536,15.1127244 18.1899293,14.8620178 C17.590371,15.8406442 17.5334113,17.0667992 18.0395676,18.0988131 C17.9257048,18.1001978 17.8113375,18.1008902 17.6964657,18.1008902 L16.7650728,18.1008902 Z" id="Path" fill="#FF5858"></path>
            <path d="M20.956341,18.9910979 C19.6703557,18.9910979 18.6278586,17.9282724 18.6278586,16.6172107 C18.6278586,15.306149 19.6703557,14.2433234 20.956341,14.2433234 C21.0232848,14.2433234 21.0894137,14.2468843 21.1549605,14.2525816 C21.421106,14.3208309 21.6984283,14.3992285 21.980815,14.4860534 C22.9536786,14.9719281 23.46926,16.0777158 23.2245909,17.1536289 C22.9799218,18.2295421 22.0396662,18.9912265 20.956341,18.9910979 Z" id="Path" fill="#5A5A5A"></path>
            <path d="M23.8970977,15.1839763 C24.9856632,15.6409496 25.9090811,16.1339466 26.5137879,16.5281306 C26.1901871,16.6440356 25.8752599,16.7513947 25.5641746,16.8524036 L25.38721,16.7442136 C25.1740595,16.6138339 24.898045,16.6771037 24.7601497,16.8879525 L24.5881913,17.1509792 C24.4433597,17.1928388 24.2980236,17.2334916 24.152183,17.2729377 C24.2915733,16.5668194 24.2020468,15.8336414 23.8970977,15.1839169 L23.8970977,15.1839763 Z" id="Path" fill="#FF5858"></path>
            <polygon id="Path" fill="#FF5858" points="25.0863701 18.2913353 25.2676424 17.8435784 25.2687484 17.8407985 25.2887734 17.7913353 25.7948108 18.2913353"></polygon>
            <path d="M16.2993763,7.1810089 C16.5565734,7.1810089 16.7650728,6.9684438 16.7650728,6.70623145 L16.7650728,6.23145401 C16.7650728,5.96924166 16.5565734,5.75667656 16.2993763,5.75667656 C16.0421792,5.75667656 15.8336798,5.96924166 15.8336798,6.23145401 L15.8336798,6.70623145 C15.8336798,6.9684438 16.0421792,7.1810089 16.2993763,7.1810089 Z" id="Shape" fill="#000000"></path>
            <path d="M4.65696466,15.2522255 C3.88537349,15.2522255 3.25987526,15.8899208 3.25987526,16.6765579 C3.25987526,17.4631949 3.88537349,18.1008902 4.65696466,18.1008902 C5.42855583,18.1008902 6.05405405,17.4631949 6.05405405,16.6765579 C6.05318788,15.8902869 5.42819676,15.2531086 4.65696466,15.2522255 Z M4.65696466,17.1513353 C4.3997676,17.1513353 4.19126819,16.9387702 4.19126819,16.6765579 C4.19126819,16.4143455 4.3997676,16.2017804 4.65696466,16.2017804 C4.91416171,16.2017804 5.12266112,16.4143455 5.12266112,16.6765579 C5.1223724,16.9386482 4.91404202,17.151041 4.65696466,17.1513353 Z" id="Shape" fill="#000000"></path>
            <path d="M20.956341,15.1928783 C20.391271,15.1928783 19.8818416,15.5399058 19.6655987,16.0721423 C19.4493558,16.6043788 19.5688848,17.2170095 19.9684496,17.6243657 C20.3680143,18.0317219 20.9689274,18.1535818 21.4909839,17.9331222 C22.0130404,17.7126626 22.3534304,17.1932993 22.3534304,16.6172107 C22.3525642,15.8309397 21.7275731,15.1937614 20.956341,15.1928783 Z M20.956341,17.0919881 C20.6991439,17.0919881 20.4906445,16.879423 20.4906445,16.6172107 C20.4906445,16.3549983 20.6991439,16.1424332 20.956341,16.1424332 C21.213538,16.1424332 21.4220374,16.3549983 21.4220374,16.6172107 C21.4217487,16.879301 21.2134183,17.0916938 20.956341,17.0919881 Z" id="Shape" fill="#000000"></path>
        </g>
        <g id="003-elephant" transform="translate(8.000000, 50.000000)" fill-rule="nonzero">
            <path d="M26.55,13.9130435 C25.8047649,13.9122294 25.2008425,13.3287296 25.2,12.6086957 L25.2,10.7093212 C26.0882539,10.4018455 26.7586663,9.68576487 26.9865141,8.80111033 C27.020135,8.67121984 26.9899375,8.53360684 26.9046556,8.42807335 C26.8193736,8.32253987 26.6885207,8.26085854 26.5499437,8.26086957 L25.2,8.26086957 L25.2,6.08695652 C25.1960613,2.72680082 22.3777612,0.0038055045 18.9,0 L7.0875,0 C3.17501687,0.00427693385 0.00442662654,3.06764915 -2.84217094e-14,6.84782609 L-2.84217094e-14,18.2608696 C-1.84954469e-06,18.3467063 0.0262986917,18.4306222 0.0755859375,18.502038 L0.975585937,19.8063859 C1.05903857,19.9273457 1.19954158,20.0000015 1.35,20 L4.05,20 C4.21595174,19.9999896 4.36842886,19.9117341 4.44673361,19.7703661 C4.52503836,19.628998 4.51646026,19.4574644 4.42441406,19.3240489 L3.655728,18.2099728 L4.87503562,15.2647745 L5.82747806,18.255563 L5.42309681,19.4277038 C5.37735114,19.5602919 5.40036105,19.7060438 5.48493809,19.8194258 C5.56951514,19.9328078 5.70534739,19.9999958 5.85,20 L9.9,20 C10.0659517,19.9999896 10.2184289,19.9117341 10.2967336,19.7703661 C10.3750384,19.628998 10.3664603,19.4574644 10.2744141,19.3240489 L9.45,18.1292457 L9.45,12.6086957 L12.2153788,12.6086957 L12.2166939,12.6133663 L11.2602724,16.8641728 C11.2384602,16.9610825 11.2516017,17.0622849 11.2975161,17.1509848 L12.6475161,19.7596804 C12.7237443,19.9069695 12.8795595,20.0000054 13.05,20 L14.4,20 C14.6485271,19.9999976 14.8499975,19.8053402 14.85,19.5652174 L14.85,18.3415951 L15.75,16.0807201 L15.75,18.2608696 C15.7499982,18.3467063 15.7762987,18.4306222 15.8255859,18.502038 L16.7255859,19.8063859 C16.8090386,19.9273457 16.9495416,20.0000015 17.1,20 L19.8,20 C19.9559651,20.0000011 20.1008097,19.9219742 20.1828021,19.7937869 C20.2647944,19.6655995 20.2722417,19.5055325 20.2024839,19.3707543 L19.35,17.7234418 L19.35,14.3478261 C19.3500063,14.2956974 19.3403027,14.243993 19.321353,14.1951853 L17.9288325,10.6073793 L19.2090662,7.39130435 L19.35,7.39130435 L19.35,7.82608696 C19.3518636,9.17134962 20.2661763,10.3563936 21.6,10.7423201 L21.6,12.6086957 C21.602244,14.5287873 23.2127051,16.0847884 25.2,16.0869565 L26.55,16.0869565 C26.7985271,16.0869541 26.9999975,15.8922967 27,15.6521739 L27,14.3478261 C26.9999975,14.1077033 26.7985271,13.9130459 26.55,13.9130435 Z" id="Path" fill="#4D4D4D"></path>
            <path d="M18.9,0.869565217 C21.8809403,0.872822041 24.2966292,3.20682097 24.3,6.08695652 L24.3,8.26086957 L22.9499724,8.26086957 C22.7112679,8.26086957 22.4823408,8.16924746 22.3135564,8.0061606 C22.1447721,7.84307373 22.0499575,7.62188245 22.0499724,7.39125 L22.0499724,6.08695652 C22.0502839,5.62076214 21.7930461,5.18985197 21.375231,4.95666787 C20.9574159,4.72348376 20.4425565,4.72348376 20.0247414,4.95666787 C19.6069263,5.18985197 19.3496885,5.62076214 19.35,6.08695652 L19.35,6.52173913 L18.3173676,6.52173913 C18.405218,6.29621115 18.4501512,6.05719734 18.45,5.81622554 L18.45,2.60869565 C18.4499975,2.36857284 18.2485271,2.17391544 18,2.17391304 L14.85,2.17391304 L14.85,3.04347826 L17.55,3.04347826 L17.55,5.81622554 C17.550007,6.26526372 17.2772522,6.67249777 16.8532848,6.85644975 C16.4293175,7.04040172 15.9330853,6.96681762 15.5857269,6.66848913 L12.8328002,4.30419946 C12.2015209,3.76203601 11.9826359,2.89938623 12.282802,2.13659604 C12.5829681,1.37380585 13.339741,0.86956054 14.1843656,0.869565217 L18.9,0.869565217 Z" id="Path" fill="#AFAFAF"></path>
            <path d="M2.73219019,18.0994185 C2.67714973,18.2323407 2.69338024,18.3829251 2.77558594,18.502038 L3.2091615,19.1304348 L1.59082031,19.1304348 L0.9,18.1292457 L0.9,9.81962609 C1.18243967,10.2470871 1.52459686,10.6348344 1.91678456,10.9718902 L4.10693456,12.8528348 L4.45360331,13.9414098 L2.73219019,18.0994185 Z" id="Path" fill="#AFAFAF"></path>
            <path d="M13.9799925,18.1047788 C13.9601695,18.1545909 13.9500027,18.2075022 13.95,18.2608696 L13.95,19.1304348 L13.3281191,19.1304348 L12.1734281,16.8991489 L12.8270813,13.9939549 C13.0871109,14.3337883 13.4177266,14.6174106 13.7977577,14.8266603 L15.0169714,15.4997826 L13.9799925,18.1047788 Z" id="Path" fill="#AFAFAF"></path>
            <path d="M18.4975161,18.02055 L19.0718809,19.1304348 L17.3408203,19.1304348 L16.65,18.1292457 L16.65,15.6521739 C16.6500018,15.4961457 16.5634769,15.3520779 16.4232697,15.2746582 L14.2442961,14.0716304 C13.7251015,13.7868044 13.3454206,13.3131306 13.1898836,12.7561902 L12.1341521,9.01606196 C12.1004677,8.89671548 12.0157607,8.7968829 11.9012422,8.74156304 L10.1012422,7.87199783 L9.69875775,8.64974457 L11.3188016,9.43237446 L11.9699274,11.7391304 L7.65,11.7391304 L7.65,12.6086957 L8.55,12.6086957 L8.55,18.2608696 C8.54999815,18.3467063 8.57629869,18.4306222 8.62558594,18.502038 L9.0591615,19.1304348 L6.47435306,19.1304348 L6.7269015,18.3983842 C6.75657043,18.3124115 6.75768437,18.2196287 6.7300875,18.1330141 L4.9300875,12.4808402 C4.90588095,12.4047751 4.86052531,12.3365907 4.79896537,12.2837207 L2.51471531,10.3219473 C1.48803762,9.43958706 0.900479646,8.17543381 0.9,6.84782609 C0.903858123,3.54766906 3.67183747,0.873292872 7.0875,0.869565217 L12.0726838,0.869565217 C11.5178958,1.42455876 11.2215392,2.17425738 11.2521539,2.94527483 C11.2827685,3.71629229 11.6377028,4.44184968 12.2348694,4.95414402 L14.9877962,7.3184337 C15.2384568,7.53365207 15.5393071,7.68705568 15.8646527,7.76554293 L18.45,14.426694 L18.45,17.826087 C18.4499976,17.8935932 18.4662659,17.9601724 18.4975161,18.02055 Z" id="Path" fill="#AFAFAF"></path>
            <path d="M17.4527916,9.38085163 L16.8298791,7.77593207 C17.1328083,7.70941722 17.4163907,7.57796855 17.6596605,7.39130435 L18.244773,7.39130435 L17.4527916,9.38085163 Z" id="Path" fill="#AFAFAF"></path>
            <path d="M20.25,7.82608696 L20.25,6.08695652 C20.2498201,5.93151263 20.3355477,5.78780214 20.4748477,5.71002998 C20.6141478,5.63225782 20.7858246,5.63225782 20.9251247,5.71002998 C21.0644248,5.78780214 21.1501523,5.93151263 21.1499724,6.08695652 L21.1499724,7.39125 C21.149965,8.35175699 21.9558477,9.13041197 22.9499724,9.13043478 L25.8754117,9.13043478 C25.5230186,9.67222774 24.906918,10.0007445 24.2446286,10 L22.5,10 C21.2579443,9.99863666 20.2514111,9.02614081 20.25,7.82608696 Z" id="Path" fill="#E8E8E8"></path>
            <path d="M26.1,15.2173913 L25.2,15.2173913 C23.7095338,15.2157536 22.501695,14.0487596 22.5,12.6086957 L22.5,10.8695652 L24.2446286,10.8695652 C24.2631647,10.8695652 24.2815359,10.8687826 24.3,10.8684375 L24.3,12.6086957 C24.3014179,13.6412828 25.0531725,14.5309564 26.1,14.7389288 L26.1,15.2173913 Z" id="Path" fill="#AFAFAF"></path>
            <path d="M21.15,3.91304348 L21.6,3.91304348 L21.6,3.47826087 C21.6,3.23813707 21.3985281,3.04347826 21.15,3.04347826 L20.7,3.04347826 L20.7,3.47826087 C20.7,3.71838467 20.9014719,3.91304348 21.15,3.91304348 Z" id="Shape" fill="#4D4D4D"></path>
        </g>
        <g id="005-growth" transform="translate(7.000000, 87.000000)" fill-rule="nonzero">
            <path d="M12.9112843,24.9517807 C12.0057055,24.9517807 11.1006116,24.7684012 10.2624179,24.4021294 L6.25445631,22.6516229 C4.80446374,22.0179532 3.27133055,21.6166128 1.69771778,21.4585606 L0.381525986,21.3263229 C0.164826969,21.3046485 0,21.1215126 0,20.9028211 L0,16.754744 C0,16.662689 0.0298143055,16.5730693 0.0848374415,16.4995227 C0.183248807,16.3672849 2.5422136,13.2710217 6.14562199,14.0766248 C8.17226657,14.5291069 9.80405357,15.375867 10.8160427,16.0066143 C11.5507346,16.4644541 12.4119556,16.7062812 13.3066266,16.7062812 L17.3145883,16.7062812 C18.0054072,16.7062812 18.6126007,17.0735271 18.9521927,17.624396 L22.4041057,13.6287699 C23.0733518,12.7308681 24.1682391,12.1809733 25.3145137,12.1809733 L25.5724195,12.1809733 C25.7156735,12.1809733 25.8489894,12.2535458 25.9270398,12.3738505 C26.0053327,12.4941552 26.0176946,12.6463626 25.9602476,12.7778698 L22.8382309,19.9065325 C22.1556533,21.4656231 20.7657742,22.6433428 19.1206556,23.0566163 L18.5713939,23.1944552 L15.3761747,24.4785984 C14.5898531,24.7944592 13.7504475,24.9517807 12.9112843,24.9517807 Z" id="Path" fill="#6F5642"></path>
            <path d="M0.847404535,20.5175537 L1.78207041,20.611557 C3.44318689,20.7783763 5.06164227,21.2023652 6.592594,21.8711035 L10.6003132,23.62161 C12.0095838,24.2372584 13.6348262,24.2613681 15.0617914,23.6878507 L18.2831891,22.3932357 C18.3011262,22.3861733 18.3193056,22.3803285 18.3379699,22.3757014 L18.9151067,22.2305564 C20.308137,21.8806012 21.484953,20.883582 22.0625746,19.5636397 L24.9102029,13.0615843 C24.1810859,13.1694689 23.5101432,13.5642339 23.0631712,14.1628351 L19.2391856,18.5907302 C19.2396704,18.6072904 19.2399128,18.623607 19.2399128,18.6404107 C19.2399128,19.7068364 18.3762679,20.5745402 17.3148307,20.5745402 L11.7228334,20.5745402 C10.995898,20.5745402 10.2774463,20.691679 9.58783937,20.9225471 L9.43222328,20.5255903 L9.30060409,20.121084 L9.32217707,20.1140216 C10.0961366,19.8549037 10.904516,19.7231531 11.7228334,19.7231531 L17.3148307,19.7231531 C17.908935,19.7231531 18.3927506,19.2373071 18.3927506,18.6401671 C18.3927506,18.0430272 17.9091773,17.5571813 17.3148307,17.5571813 L13.306869,17.5571813 C12.254158,17.5571813 11.2385329,17.2710314 10.3697979,16.7296602 C9.41380145,16.1337379 7.87266932,15.3342231 5.96237324,14.9073118 C3.2335173,14.2992129 1.26989485,16.4033276 0.847646912,16.9052466 L0.847646912,20.5175537 L0.847404535,20.5175537 Z" id="Path" fill="#FFE6D3"></path>
            <path d="M16.6838828,12.0847783 C16.0323315,12.0847783 15.3017601,11.8826469 14.4975015,11.4786277 C14.4000597,11.4294342 14.3249179,11.3441981 14.2880743,11.2411842 C14.2553513,11.1488856 13.4983592,8.96123946 14.7013537,7.34345773 C15.5756638,6.16744271 17.2195704,5.6377611 19.59017,5.77048591 C19.8063842,5.78241895 19.9787254,5.9565442 19.9893907,6.1742616 C19.9978744,6.34327269 20.1726395,10.332567 18.1479341,11.6607894 C17.7174448,11.9435299 17.2282965,12.0847783 16.6838828,12.0847783 Z" id="Path" fill="#3D5F18"></path>
            <path d="M15.0377946,10.7955209 C16.1506191,11.3198449 17.0401999,11.3712301 17.6849642,10.9482154 C18.8855347,10.16039 19.1451372,7.82175424 19.1514394,6.60458229 C17.2939849,6.55904183 16.0294227,6.97962126 15.380053,7.85268273 C14.6073054,8.89231995 14.9076298,10.3223387 15.0377946,10.7955209 Z" id="Path" fill="#7ED321"></path>
            <path d="M10.2052133,6.5081437 C9.45403865,6.5081437 8.58748508,6.34643859 7.83122017,5.78996845 C6.54847852,4.84555212 5.95897971,3.04755686 6.07872169,0.446150249 C6.08890215,0.228676372 6.26051611,0.0538205112 6.47697269,0.0409133416 C6.66022149,0.0304414589 10.9975947,-0.202131421 12.4570406,1.99890898 C13.1367094,3.02344726 13.0809592,4.36530742 12.2919712,5.98795979 C12.2439775,6.08659015 12.1601097,6.16281559 12.0575776,6.20056303 C12.0006153,6.22175031 11.2053252,6.5081437 10.2052133,6.5081437 Z" id="Path" fill="#3D5F18"></path>
            <path d="M11.9114148,5.80117089 L11.9446183,5.80117089 L11.9114148,5.80117089 Z" id="Path" fill="#000000"></path>
            <path d="M6.91255224,0.878419202 C6.87595094,2.96207724 7.3527372,4.38235468 8.33176087,5.10320879 C9.50397149,5.9660419 11.1044899,5.59928304 11.6076969,5.45194632 C12.1833793,4.19678342 12.2321002,3.19465012 11.7521629,2.47087357 C10.8601581,1.12560399 8.24425716,0.862589651 6.91255224,0.878419202 Z" id="Path" fill="#7ED321"></path>
            <path d="M13.5136299,17.4076527 C13.5002983,17.4076527 13.4869667,17.4069221 13.4733927,17.4057045 C13.2477253,17.3842737 13.0787776,17.1882306 13.09017,16.9605284 C13.1151365,16.459827 13.1577976,15.98494 13.2157294,15.5348933 C13.3919488,12.522892 13.3010516,5.50868921 8.88708234,3.56822787 C8.67280728,3.47398105 8.57488067,3.22314333 8.66868662,3.00761771 C8.76225013,2.79257911 9.01264174,2.69443579 9.22667436,2.78843903 C11.8277894,3.93182082 13.4641818,6.77846397 13.9579356,11.0205443 C14.0022934,11.4006975 14.0355012,11.7754929 14.0602253,12.1405471 C15.2227401,9.18918522 17.0011747,8.14638211 17.1071002,8.08671683 C17.31071,7.97103921 17.5691005,8.04458579 17.6839946,8.24890898 C17.7981616,8.45347569 17.7264134,8.71235 17.5235308,8.82778404 C17.4786881,8.85408547 14.7515289,10.4984122 14.0670122,15.5692312 C14.0148978,16.4366915 13.9397561,16.9897522 13.9327267,17.0404068 C13.9033972,17.2527665 13.7228148,17.4076527 13.5136299,17.4076527 Z" id="Shape" fill="#3D5F18"></path>
        </g>
        <g id="007-crane-1" transform="translate(5.000000, 124.000000)" fill-rule="nonzero">
            <path d="M18.6302612,9.32269006 C18.350807,9.32269006 18.1645224,9.50897466 18.1645224,9.78842885 L18.1645224,10.719961 C18.1645224,10.9994152 18.350807,11.1856998 18.6302612,11.1856998 C18.9097154,11.1856998 19.096,10.9994152 19.096,10.719961 L19.096,9.78842885 C19.0960546,9.50897466 18.9097154,9.32269006 18.6302612,9.32269006 Z" id="Shape" fill="#000000"></path>
            <path d="M20.0275322,9.32269006 C19.748078,9.32269006 19.5617934,9.50897466 19.5617934,9.78842885 L19.5617934,10.719961 C19.5617934,10.9994152 19.748078,11.1856998 20.0275322,11.1856998 C20.3069864,11.1856998 20.493271,10.9994152 20.493271,10.719961 L20.493271,9.78842885 C20.4933255,9.50897466 20.3069864,9.32269006 20.0275322,9.32269006 Z" id="Shape" fill="#000000"></path>
            <path d="M21.4248031,9.32269006 C21.1453489,9.32269006 20.9590643,9.50897466 20.9590643,9.78842885 L20.9590643,10.719961 C20.9590643,10.9994152 21.1453489,11.1856998 21.4248031,11.1856998 C21.7042573,11.1856998 21.8905419,10.9994152 21.8905419,10.719961 L21.8905419,9.78842885 C21.8905965,9.50897466 21.7042573,9.32269006 21.4248031,9.32269006 Z" id="Shape" fill="#000000"></path>
            <path d="M27.8988616,21.1994932 C28.0385887,21.8049591 27.9454191,22.457037 27.5729591,22.9693879 L26.3071189,25.0187914 C26.2958207,25.0529045 26.2824483,25.0845614 26.2688031,25.1118519 L24.6386355,27.7666667 C24.5454659,27.8597817 24.3591813,27.9529513 24.2194542,27.9529513 L16.3015673,27.9529513 C16.1618402,27.9529513 15.975501,27.8597817 15.9289435,27.7200546 L12.948117,22.9693333 C12.5754932,22.4569825 12.4823782,21.8049045 12.6686628,21.1994386 C12.8549474,20.5939727 13.2741287,20.0816218 13.833037,19.8021676 L14.4541676,19.4659493 L14.0175205,15.3774581 L13.5069708,15.3774581 C13.2275166,15.3774581 13.041232,15.1911735 13.041232,14.9117193 L13.041232,12.1171774 C13.041232,11.8377232 13.2275166,11.6514386 13.5069708,11.6514386 L16.7672515,11.6514386 L16.7672515,8.39115789 C16.7672515,8.1117037 16.9535361,7.9254191 17.2329903,7.9254191 L17.5357505,7.9254191 L19.5617934,6.3045848 L19.5617934,5.13087719 L9.31515789,12.8158674 L9.31515789,16.2469318 L10.6296842,19.7523899 C10.6826277,19.8282027 10.7124288,19.9241014 10.7124288,20.0351189 L10.7124288,27.4872125 C10.7124288,27.7666667 10.5261442,27.9529513 10.2466901,27.9529513 L2.79459649,27.9529513 C2.5151423,27.9529513 2.3288577,27.7666667 2.3288577,27.4872125 L2.3288577,20.0991423 C2.32241715,20.0573333 2.32345419,20.0136686 2.33316959,19.967384 C2.34272125,19.8848031 2.36979337,19.8122105 2.41160234,19.7523899 L3.72612865,16.2469318 L3.72612865,14.4459805 L1.39732554,14.4459805 C1.25759844,14.4459805 1.11787135,14.3528655 1.02470175,14.2596959 L0.0931695906,12.862425 C0.0465575049,12.7692554 0,12.6761404 0,12.5829708 L0,9.78842885 C0,9.50897466 0.1862846,9.32269006 0.465738791,9.32269006 L5.89762963,9.32269006 L17.7161949,2.04967641 C17.853848,0.885247563 18.820694,0.00753216374 20.0275322,0.00753216374 C21.3316881,0.00753216374 22.3563353,1.03223392 22.3563353,2.33633528 C22.3563353,3.48051462 21.5675322,4.40937232 20.4933255,4.62005458 L20.4933255,6.30463938 L22.5193684,7.92547368 L22.8221287,7.92547368 C23.1015828,7.92547368 23.2878674,8.11175828 23.2878674,8.39121248 L23.2878674,11.6514932 L26.5481481,11.6514932 C26.8276023,11.6514932 27.0138869,11.8377778 27.0138869,12.117232 L27.0138869,14.9117739 C27.0138869,15.1912281 26.8276023,15.3775127 26.5481481,15.3775127 L26.4522495,15.3775127 L25.981271,19.3809123 L26.7810448,19.8022222 C27.3399532,20.0816764 27.7591345,20.5940273 27.8988616,21.1994932 Z M20.0275322,7.12433528 L19.026191,7.9254191 L21.0289279,7.9254191 L20.0275322,7.12433528 Z" id="Combined-Shape" fill="#612929"></path>
            <path d="M21.5645302,17.0542378 C21.252,16.8859649 20.8026355,16.7805692 20.313154,16.7747836 C19.8414659,16.7631033 19.3290058,16.8445926 18.8631579,17.0542378 L15.323423,18.9638596 L14.9556569,15.4241248 L25.523501,15.4241248 L25.1093411,18.921614 L21.5645302,17.0542378 Z" id="Path" fill="#D3D3D3"></path>
            <path d="M20.0275322,0.939064327 C20.8193372,0.939064327 21.4248031,1.54453021 21.4248031,2.33633528 C21.4248031,3.12814035 20.8193372,3.73360624 20.0275322,3.73360624 C19.2357271,3.73360624 18.6302612,3.12814035 18.6302612,2.33633528 C18.6302612,1.54453021 19.2357817,0.939064327 20.0275322,0.939064327 Z" id="Path" fill="#CA6060"></path>
            <polygon id="Path" fill="#CA6060" points="0.931532164 12.4432437 0.931532164 10.2541676 5.58908382 10.2541676 5.58908382 12.5829708 5.58908382 13.5145029 4.19181287 13.5145029 1.63016764 13.5145029"></polygon>
            <path d="M6.05482261,14.4460351 C6.3342768,14.4460351 6.5205614,14.2597505 6.5205614,13.9802963 L6.5205614,13.0487641 L8.38362573,13.0487641 L8.38362573,15.843306 L4.65755166,15.843306 L4.65755166,14.4460351 L6.05482261,14.4460351 Z" id="Path" fill="#CA6060"></path>
            <path d="M9.78089669,27.0214737 L3.2602807,27.0214737 L3.2602807,26.0899415 L5.58908382,26.0899415 C5.86853801,26.0899415 6.05482261,25.9036569 6.05482261,25.6242027 C6.05482261,25.3447485 5.86853801,25.1584639 5.58908382,25.1584639 L3.2602807,25.1584639 L3.2602807,24.2269318 L4.65755166,24.2269318 C4.93700585,24.2269318 5.12329045,24.0406472 5.12329045,23.761193 C5.12329045,23.4817388 4.93700585,23.2954542 4.65755166,23.2954542 L3.2602807,23.2954542 L3.2602807,20.5009123 L9.78089669,20.5009123 L9.78089669,27.0214737 Z" id="Path" fill="#CA6060"></path>
            <polygon id="Path" fill="#CA6060" points="3.44661988 19.5693255 4.51787914 16.7747836 8.52340741 16.7747836 9.54805458 19.5693255"></polygon>
            <path d="M8.70963743,12.117232 L6.5205614,12.117232 L6.5205614,10.067883 L17.7918986,3.12814035 C18.0247953,3.68704873 18.4439766,4.15278752 18.9562729,4.43224172 L8.70963743,12.117232 Z" id="Path" fill="#CA6060"></path>
            <polygon id="Path" fill="#D3D3D3" points="17.6987836 8.85695127 22.3563353 8.85695127 22.3563353 11.6514932 17.6987836 11.6514932 17.6987836 8.85695127"></polygon>
            <polygon id="Path" fill="#D3D3D3" points="13.9727096 12.5829708 17.2329903 12.5829708 22.8220741 12.5829708 26.0823548 12.5829708 26.0823548 14.4459805 14.4384483 14.4459805 13.9727096 14.4459805"></polygon>
            <path d="M16.5809669,27.0214737 L15.323423,25.0187368 L19.3755088,23.016 C19.9809747,22.7365458 20.6796101,22.7365458 21.2385185,23.016 L25.1974347,25.0187368 L23.9864483,27.0214737 L16.5809669,27.0214737 Z" id="Path" fill="#EB4E4E"></path>
            <path d="M26.8276023,22.457037 L25.7009435,24.2670487 L21.6576998,22.2241404 C20.8193372,21.8049591 19.8878051,21.8049591 19.002885,22.2241404 L14.8469864,24.2806394 L13.6932554,22.4569825 C13.4603587,22.1775283 13.4138012,21.8049045 13.5069708,21.4323353 C13.6001404,21.1063236 13.8329825,20.8268694 14.2056062,20.6405302 L15.0762261,20.1692788 C15.1070643,20.1644756 15.1285146,20.154924 15.1345185,20.137731 L19.2823392,17.8926004 C19.5435634,17.7720312 19.8480702,17.7211072 20.1436257,17.7167953 C20.5161404,17.7175595 20.8699883,17.7909162 21.0987914,17.8926004 L25.2906043,20.0816764 C25.3286472,20.1070565 25.3667446,20.1248499 25.4047875,20.1364211 L26.3618635,20.6405848 C26.6878752,20.7803119 26.9207719,21.0597661 27.0139415,21.4323899 C27.1070565,21.7584016 27.060499,22.1310253 26.8276023,22.457037 Z" id="Path" fill="#D3D3D3"></path>
            <path d="M20.0275322,2.80207407 C20.3069864,2.80207407 20.493271,2.61578947 20.493271,2.33633528 C20.493271,2.05688109 20.3069864,1.87059649 20.0275322,1.87059649 C19.748078,1.87059649 19.5617934,2.05688109 19.5617934,2.33633528 C19.5617934,2.61578947 19.748078,2.80207407 20.0275322,2.80207407 Z" id="Shape" fill="#612929"></path>
        </g>
        <g id="001-company" transform="translate(7.000000, 166.000000)" fill-rule="nonzero">
            <path d="M12.0967742,20.1612903 L15.3225806,20.1612903 L15.3225806,4.83870968 L12.0967742,4.83870968 L12.0967742,20.1612903 Z M12.9032258,19.3548387 L12.9032258,17.7419355 L14.516129,17.7419355 L14.516129,19.3548387 L12.9032258,19.3548387 Z M14.516129,10.483871 L14.516129,12.0967742 L12.9032258,12.0967742 L12.9032258,10.483871 L14.516129,10.483871 Z M12.9032258,9.67741935 L12.9032258,8.06451613 L14.516129,8.06451613 L14.516129,9.67741935 L12.9032258,9.67741935 Z M14.516129,12.9032258 L14.516129,14.516129 L12.9032258,14.516129 L12.9032258,12.9032258 L14.516129,12.9032258 Z M14.516129,15.3225806 L14.516129,16.9354839 L12.9032258,16.9354839 L12.9032258,15.3225806 L14.516129,15.3225806 Z M14.516129,5.64516129 L14.516129,7.25806452 L12.9032258,7.25806452 L12.9032258,5.64516129 L14.516129,5.64516129 Z" id="Shape" fill="#000000"></path>
            <path d="M23.3870968,2.46008065 L23.3870968,1.20967742 C23.3870968,0.542741935 22.8443548,0 22.1774194,0 L13.3064516,0 C12.6395161,0 12.0967742,0.542741935 12.0967742,1.20967742 L12.0967742,2.46008065 C11.1778226,2.64758065 10.483871,3.46209677 10.483871,4.43548387 L10.483871,4.83870968 L2.17016129,4.83870968 L1.36370968,6.4516129 L1.33185484,6.4516129 C0.597177419,6.4516129 0,7.04879032 0,7.78346774 C0,8.04677419 0.0774193548,8.30241935 0.223790323,8.52217742 L0.806451613,9.39637097 L0.806451613,18.5483871 L0,18.5483871 L0,25 L25,25 L25,4.43548387 C25,3.46209677 24.3060484,2.64758065 23.3870968,2.46008065 Z" id="Path" fill="#242C38"></path>
            <polygon id="Path" fill="#9EB29B" points="2.66854839 5.64516129 10.483871 5.64516129 10.483871 6.4516129 2.26532258 6.4516129"></polygon>
            <path d="M1.33185484,7.25806452 L10.483871,7.25806452 L10.483871,8.87096774 L1.42540323,8.87096774 L0.894758065,8.075 C0.837096774,7.98830645 0.806451613,7.8875 0.806451613,7.78346774 C0.806451613,7.49354839 1.04193548,7.25806452 1.33185484,7.25806452 Z" id="Path" fill="#9EB29B"></path>
            <polygon id="Path" fill="#49576B" points="4.83870968 18.5483871 4.83870968 16.1290323 7.25806452 16.1290323 7.25806452 18.5483871"></polygon>
            <polygon id="Path" fill="#49576B" points="4.83870968 15.3225806 4.83870968 12.9032258 7.25806452 12.9032258 7.25806452 15.3225806"></polygon>
            <polygon id="Path" fill="#49576B" points="4.03225806 9.67741935 4.03225806 12.0967742 1.61290323 12.0967742 1.61290323 9.67741935"></polygon>
            <polygon id="Path" fill="#49576B" points="7.25806452 9.67741935 7.25806452 12.0967742 4.83870968 12.0967742 4.83870968 9.67741935"></polygon>
            <polygon id="Path" fill="#49576B" points="1.61290323 12.9032258 4.03225806 12.9032258 4.03225806 15.3225806 1.61290323 15.3225806"></polygon>
            <polygon id="Path" fill="#49576B" points="8.06451613 12.9032258 10.483871 12.9032258 10.483871 15.3225806 8.06451613 15.3225806"></polygon>
            <polygon id="Path" fill="#49576B" points="8.06451613 12.0967742 8.06451613 9.67741935 10.483871 9.67741935 10.483871 12.0967742"></polygon>
            <polygon id="Path" fill="#49576B" points="1.61290323 16.1290323 4.03225806 16.1290323 4.03225806 18.5483871 1.61290323 18.5483871"></polygon>
            <path d="M4.43548387,24.1935484 L2.41935484,24.1935484 L2.41935484,22.7822581 C2.41935484,22.2266129 2.87177419,21.7741935 3.42741935,21.7741935 C3.98306452,21.7741935 4.43548387,22.2266129 4.43548387,22.7822581 L4.43548387,24.1935484 Z" id="Path" fill="#49576B"></path>
            <path d="M8.87096774,24.1935484 L6.85483871,24.1935484 L6.85483871,22.7822581 C6.85483871,22.2266129 7.30725806,21.7741935 7.86290323,21.7741935 C8.41854839,21.7741935 8.87096774,22.2266129 8.87096774,22.7822581 L8.87096774,24.1935484 Z" id="Path" fill="#49576B"></path>
            <path d="M10.483871,24.1935484 L9.67741935,24.1935484 L9.67741935,22.7822581 C9.67741935,21.7818548 8.86330645,20.9677419 7.86290323,20.9677419 C6.8625,20.9677419 6.0483871,21.7818548 6.0483871,22.7822581 L6.0483871,24.1935484 L5.24193548,24.1935484 L5.24193548,22.7822581 C5.24193548,21.7818548 4.42782258,20.9677419 3.42741935,20.9677419 C2.42701613,20.9677419 1.61290323,21.7818548 1.61290323,22.7822581 L1.61290323,24.1935484 L0.806451613,24.1935484 L0.806451613,19.3548387 L10.483871,19.3548387 L10.483871,24.1935484 Z" id="Path" fill="#9EB29B"></path>
            <polygon id="Path" fill="#49576B" points="8.06451613 18.5483871 8.06451613 16.1290323 10.483871 16.1290323 10.483871 18.5483871"></polygon>
            <path d="M13.3064516,0.806451613 L22.1774194,0.806451613 C22.3995968,0.806451613 22.5806452,0.9875 22.5806452,1.20967742 L22.5806452,2.41935484 L12.9032258,2.41935484 L12.9032258,1.20967742 C12.9032258,0.9875 13.0842742,0.806451613 13.3064516,0.806451613 Z" id="Path" fill="#A1CAD6"></path>
            <polygon id="Path" fill="#49576B" points="22.5806452 24.1935484 20.1612903 24.1935484 20.1612903 21.7741935 22.5806452 21.7741935"></polygon>
            <polygon id="Path" fill="#49576B" points="19.3548387 24.1935484 16.1290323 24.1935484 16.1290323 21.7741935 19.3548387 21.7741935"></polygon>
            <polygon id="Path" fill="#49576B" points="15.3225806 24.1935484 12.9032258 24.1935484 12.9032258 21.7741935 15.3225806 21.7741935"></polygon>
            <path d="M24.1935484,24.1935484 L23.3870968,24.1935484 L23.3870968,20.9677419 L12.0967742,20.9677419 L12.0967742,24.1935484 L11.2903226,24.1935484 L11.2903226,4.43548387 C11.2903226,3.76854839 11.8330645,3.22580645 12.5,3.22580645 L22.983871,3.22580645 C23.6508065,3.22580645 24.1935484,3.76854839 24.1935484,4.43548387 L24.1935484,24.1935484 Z" id="Path" fill="#A1CAD6"></path>
            <polygon id="Path" fill="#242C38" points="16.1290323 20.1612903 19.3548387 20.1612903 19.3548387 4.83870968 16.1290323 4.83870968"></polygon>
            <polygon id="Path" fill="#49576B" points="16.9354839 19.3548387 16.9354839 17.7419355 18.5483871 17.7419355 18.5483871 19.3548387"></polygon>
            <polygon id="Path" fill="#49576B" points="18.5483871 10.483871 18.5483871 12.0967742 16.9354839 12.0967742 16.9354839 10.483871"></polygon>
            <polygon id="Path" fill="#49576B" points="16.9354839 9.67741935 16.9354839 8.06451613 18.5483871 8.06451613 18.5483871 9.67741935"></polygon>
            <polygon id="Path" fill="#49576B" points="18.5483871 12.9032258 18.5483871 14.516129 16.9354839 14.516129 16.9354839 12.9032258"></polygon>
            <polygon id="Path" fill="#49576B" points="18.5483871 15.3225806 18.5483871 16.9354839 16.9354839 16.9354839 16.9354839 15.3225806"></polygon>
            <polygon id="Path" fill="#49576B" points="18.5483871 5.64516129 18.5483871 7.25806452 16.9354839 7.25806452 16.9354839 5.64516129"></polygon>
            <polygon id="Path" fill="#242C38" points="20.1612903 20.1612903 23.3870968 20.1612903 23.3870968 4.83870968 20.1612903 4.83870968"></polygon>
            <polygon id="Path" fill="#49576B" points="20.9677419 19.3548387 20.9677419 17.7419355 22.5806452 17.7419355 22.5806452 19.3548387"></polygon>
            <polygon id="Path" fill="#49576B" points="22.5806452 10.483871 22.5806452 12.0967742 20.9677419 12.0967742 20.9677419 10.483871"></polygon>
            <polygon id="Path" fill="#49576B" points="20.9677419 9.67741935 20.9677419 8.06451613 22.5806452 8.06451613 22.5806452 9.67741935"></polygon>
            <polygon id="Path" fill="#49576B" points="22.5806452 12.9032258 22.5806452 14.516129 20.9677419 14.516129 20.9677419 12.9032258"></polygon>
            <polygon id="Path" fill="#49576B" points="22.5806452 15.3225806 22.5806452 16.9354839 20.9677419 16.9354839 20.9677419 15.3225806"></polygon>
            <polygon id="Path" fill="#49576B" points="22.5806452 5.64516129 22.5806452 7.25806452 20.9677419 7.25806452 20.9677419 5.64516129"></polygon>
        </g>
        <g id="006-airport" transform="translate(5.000000, 209.000000)" fill-rule="nonzero">
            <path d="M29.1432749,12.3942362 L11.0001754,12.3942362 L11.0001754,9.18160429 L11.7145614,9.18160429 C12.537076,9.18160429 13.2062573,8.51468098 13.2062573,7.69494172 L13.2062573,5.99135276 C13.2062573,5.1716135 12.537076,4.50474847 11.7145614,4.50474847 L11.0001754,4.50474847 L11.0001754,2.8273865 L11.2597661,2.8273865 C11.662807,2.8273865 11.9907018,2.50059816 11.9907018,2.09891718 C11.9907018,0.968825153 11.0681871,0.0494233129 9.93426901,0.0494233129 L5.36479532,0.0494233129 C4.23087719,0.0494233129 3.30842105,0.968825153 3.30842105,2.09891718 C3.30842105,2.50059816 3.63631579,2.8273865 4.03935673,2.8273865 L4.29894737,2.8273865 L4.29894737,4.50474847 L3.5845614,4.50474847 C2.76204678,4.50474847 2.0928655,5.17167178 2.0928655,5.99135276 L2.0928655,7.69494172 C2.0928655,8.51468098 2.76204678,9.18160429 3.5845614,9.18160429 L4.29894737,9.18160429 L4.29894737,12.3942362 L0.730935673,12.3942362 C0.327894737,12.3942362 0,12.7210245 0,13.1227055 L0,18.2221074 C0,18.6237883 0.327894737,18.9505767 0.730935673,18.9505767 L29.1432749,18.9505767 C29.5463158,18.9505767 29.8742105,18.6237883 29.8742105,18.2221074 L29.8742105,13.1227055 C29.874269,12.7210245 29.5463743,12.3942362 29.1432749,12.3942362 Z" id="Path" fill="#527187"></path>
            <polygon id="Path" fill="#FFFFFF" points="10.1230409 4.50469018 9.16444444 4.50469018 9.16444444 2.82732822 10.1230409 2.82732822"></polygon>
            <polygon id="Path" fill="#FFFFFF" points="7.01181287 4.50469018 7.01181287 2.82732822 8.28730994 2.82732822 8.28730994 4.50469018"></polygon>
            <path d="M5.36479532,0.92359816 L9.93426901,0.92359816 C10.5350292,0.92359816 11.0322807,1.37359509 11.1045029,1.95321166 L4.19461988,1.95321166 C4.26678363,1.37359509 4.76403509,0.92359816 5.36479532,0.92359816 Z" id="Path" fill="#B2D3EB"></path>
            <polygon id="Path" fill="#FFFFFF" points="5.17608187 2.82732822 6.13461988 2.82732822 6.13461988 4.50469018 5.17608187 4.50469018"></polygon>
            <path d="M2.97,7.69494172 L2.97,5.99135276 C2.97,5.65366564 3.24567251,5.37892331 3.5845614,5.37892331 L11.7145614,5.37892331 C12.0534503,5.37892331 12.3291228,5.65366564 12.3291228,5.99135276 L12.3291228,7.69494172 C12.3291228,8.03268712 12.0534503,8.30742945 11.7145614,8.30742945 L3.5845614,8.30742945 C3.24567251,8.30737117 2.97,8.03262883 2.97,7.69494172 Z" id="Path" fill="#B2D3EB"></path>
            <path d="M0.877134503,13.268411 L5.2602924,13.268411 C5.50251462,13.268411 5.69888889,13.0726994 5.69888889,12.8312945 C5.69888889,12.5898896 5.50251462,12.3941779 5.2602924,12.3941779 L5.17608187,12.3941779 L5.17608187,9.18154601 L10.1230409,9.18154601 L10.1230409,12.3941779 L7.32894737,12.3941779 C7.08672515,12.3941779 6.89035088,12.5898896 6.89035088,12.8312945 C6.89035088,13.0726994 7.08672515,13.268411 7.32894737,13.268411 L28.997076,13.268411 L28.997076,14.3392883 L24.8809357,14.3392883 C24.6387135,14.3392883 24.4423392,14.535 24.4423392,14.7764049 C24.4423392,15.0178098 24.638655,15.2135215 24.8809357,15.2135215 L25.3981871,15.2135215 L25.3981871,18.0764601 L16.7877193,18.0764601 L16.7877193,15.2135215 L22.7812865,15.2135215 C23.0235088,15.2135215 23.219883,15.0178098 23.219883,14.7764049 C23.219883,14.535 23.0235673,14.3392883 22.7812865,14.3392883 L13.2394737,14.3392883 C12.7397076,14.3392883 12.3330994,14.7445245 12.3330994,15.2426043 L12.3330994,18.0764018 L0.877134503,18.0764601 L0.877134503,13.268411 Z" id="Path" fill="#B2D3EB"></path>
            <path d="M13.2102339,15.2426043 C13.2102339,15.2265184 13.2233333,15.2134632 13.2394737,15.2134632 L15.9105263,15.2134632 L15.9105263,18.0764018 L13.2102339,18.0764018 L13.2102339,15.2426043 Z" id="Path" fill="#7A92A4"></path>
            <polygon id="Path" fill="#7A92A4" points="28.997076 18.0764018 26.2753801 18.0764018 26.2753801 15.2134632 28.997076 15.2134632"></polygon>
            <path d="M15.0548538,6.82146626 L15.534386,7.11258589 C17.067193,8.0432362 18.8260819,8.53513804 20.6209357,8.53513804 L27.3864327,8.53513804 C27.708655,8.53513804 28.0333333,8.46333436 28.3253801,8.32747853 L29.5016959,7.78015031 C29.7729825,7.65385276 29.9415789,7.3900092 29.9415789,7.09148773 C29.9415789,6.79296626 29.7729825,6.5291227 29.5016959,6.40282515 C29.5016374,6.40282515 29.5016374,6.40282515 29.5016374,6.40282515 L28.3253801,5.85549693 C28.0333333,5.7196411 27.7087135,5.64783742 27.3864327,5.64783742 L24.9574854,5.64783742 L20.7952047,0.987242331 C20.6492982,0.823760736 20.4397076,0.730042945 20.2201754,0.730042945 L19.154386,0.730042945 C18.9791813,0.730042945 18.8131579,0.814377301 18.7102339,0.955595092 C18.6072515,1.09681288 18.5781287,1.28022699 18.6322222,1.44609816 L20.0007602,5.64783742 L18.8755556,5.64783742 L17.5907018,4.11507362 C17.4545614,3.9526411 17.2546784,3.85950613 17.0423392,3.85950613 L16.1502339,3.85950613 C15.9746199,3.85950613 15.8084211,3.94419018 15.7054386,4.0859908 C15.6025146,4.22773313 15.5739181,4.41167178 15.6288304,4.57771779 L15.9822222,5.64789571 L15.3853801,5.64789571 C15.0973684,5.64789571 14.8516959,5.83352454 14.7738596,6.10989877 C14.6959649,6.38609816 14.8089474,6.67208896 15.0548538,6.82146626 Z" id="Path" fill="#4E96C8"></path>
            <path d="M16.5881871,6.52201227 C16.7288304,6.52201227 16.8609942,6.4547546 16.9435088,6.34116258 C17.0259649,6.22757055 17.0487719,6.08145706 17.0047953,5.94828221 L16.6036842,4.7336227 L16.9663158,4.7336227 L18.3339181,6.36517485 C18.4172515,6.46454601 18.5405263,6.52201227 18.6705263,6.52201227 L20.604269,6.52201227 C20.7446199,6.52201227 20.8765497,6.45504601 20.9590643,6.34186196 C21.0415789,6.22867791 21.0647368,6.08303067 21.0214035,5.94997239 L19.6059649,1.60421779 L20.1719298,1.60421779 L24.4330409,6.37554908 C24.5163158,6.46874233 24.6354971,6.52207055 24.7606433,6.52207055 L27.3863743,6.52207055 C27.5812865,6.52207055 27.7776023,6.5654908 27.9542105,6.64766871 L28.9081871,7.09154601 L27.9542105,7.53542331 C27.7776023,7.61760123 27.5812281,7.66102147 27.3863743,7.66102147 L20.6208772,7.66102147 C19.0905263,7.66102147 17.5887135,7.26808282 16.2580117,6.52207055 L16.5881871,6.52207055 L16.5881871,6.52201227 Z" id="Path" fill="#B2D3EB"></path>
        </g>
    </g>
</svg>